<svg xmlns="http://www.w3.org/2000/svg" viewBox="0 0 520 520" role="img" aria-labelledby="title desc">
  <title id="title">Sensory profile illustration</title>
  <desc id="desc">Soft side profile of a head with the eye highlighted in blue and the ear highlighted in coral.</desc>
  <defs>
    <linearGradient id="skin" x1="155" x2="350" y1="150" y2="410" gradientUnits="userSpaceOnUse">
      <stop stop-color="#fff8ff" stop-opacity=".98"/>
      <stop offset="1" stop-color="#f2efff" stop-opacity=".78"/>
    </linearGradient>
    <linearGradient id="line" x1="120" x2="380" y1="90" y2="440" gradientUnits="userSpaceOnUse">
      <stop stop-color="#b79bf4"/>
      <stop offset="1" stop-color="#7f66d8"/>
    </linearGradient>
    <radialGradient id="cheek" cx="0" cy="0" r="1" gradientTransform="matrix(55 0 0 40 232 274)" gradientUnits="userSpaceOnUse">
      <stop stop-color="#ffd2dd" stop-opacity=".55"/>
      <stop offset="1" stop-color="#ffd2dd" stop-opacity="0"/>
    </radialGradient>
    <filter id="softShadow" x="-20%" y="-20%" width="140%" height="140%" color-interpolation-filters="sRGB">
      <feDropShadow dx="0" dy="16" stdDeviation="18" flood-color="#6e5ba8" flood-opacity=".12"/>
    </filter>
  </defs>

  <g filter="url(#softShadow)">
    <path d="M332 108c39 19 66 60 67 114 1 47-22 83-54 105-19 13-31 33-33 56l-5 76H206l10-84c2-21-6-41-22-55-35-31-54-77-49-128 8-84 101-126 187-84Z" fill="url(#skin)"/>
    <path d="M308 393c-35-4-67-21-91-48-18-21-34-50-34-86 0-46 27-78 64-94 37-17 82-15 118 3" fill="none" stroke="url(#line)" stroke-width="3" stroke-linecap="round" opacity=".42"/>

    <path d="M373 150c-25-38-82-58-138-44-62 16-103 61-111 125-4 30 3 61 21 86 14 19 26 28 40 35" fill="none" stroke="url(#line)" stroke-width="3.5" stroke-linecap="round" opacity=".55"/>
    <path d="M226 141c-10 41-4 82 15 121" fill="none" stroke="#c5b1f4" stroke-width="2.2" stroke-linecap="round" opacity=".45"/>
    <path d="M258 125c-9 42-3 87 19 125" fill="none" stroke="#c5b1f4" stroke-width="2.2" stroke-linecap="round" opacity=".4"/>
    <path d="M289 119c-7 37-1 77 18 109" fill="none" stroke="#c5b1f4" stroke-width="2.2" stroke-linecap="round" opacity=".35"/>
    <path d="M194 166c36-22 92-35 157-18" fill="none" stroke="#c5b1f4" stroke-width="2" stroke-linecap="round" opacity=".42"/>
    <path d="M178 197c44-21 108-28 188-6" fill="none" stroke="#c5b1f4" stroke-width="2" stroke-linecap="round" opacity=".35"/>
    <path d="M169 228c51-18 114-18 188 3" fill="none" stroke="#c5b1f4" stroke-width="2" stroke-linecap="round" opacity=".3"/>

    <path d="M185 200c-38 12-58 39-64 70 17-3 29 1 38 10-13 1-25 7-35 18 12 11 29 17 50 17" fill="#fbf8ff" opacity=".72"/>
    <path d="M190 201c-40 10-62 39-69 70 16-3 29 1 38 10-14 1-27 8-36 18 13 12 31 17 54 16" fill="none" stroke="url(#line)" stroke-width="3.5" stroke-linecap="round" stroke-linejoin="round" opacity=".62"/>
    <path d="M150 263c12-11 27-13 44-4" stroke="url(#line)" stroke-width="2.5" stroke-linecap="round" opacity=".42"/>
    <path d="M158 306c15 6 31 7 49 4" stroke="url(#line)" stroke-width="2.4" stroke-linecap="round" opacity=".34"/>
    <path d="M202 315c13 18 31 30 54 36" stroke="url(#line)" stroke-width="2.6" stroke-linecap="round" opacity=".34"/>
    <path d="M263 352c-7 32-5 70 6 108" stroke="url(#line)" stroke-width="3" stroke-linecap="round" opacity=".38"/>
    <path d="M318 338c18 31 27 68 24 112" stroke="url(#line)" stroke-width="3" stroke-linecap="round" opacity=".34"/>
    <path d="M332 342c20 15 42 22 68 21" stroke="url(#line)" stroke-width="2.6" stroke-linecap="round" opacity=".28"/>
    <circle cx="232" cy="274" r="58" fill="url(#cheek)"/>
  </g>

  <g aria-label="highlighted eye">
    <ellipse cx="161" cy="248" rx="37" ry="25" fill="#eaf3ff" opacity=".88"/>
    <path d="M124 248s14-20 37-20 38 20 38 20-15 20-38 20-37-20-37-20Z" fill="#fff" stroke="#276ee8" stroke-width="4" stroke-linejoin="round"/>
    <circle cx="162" cy="248" r="13" fill="#6db8ff"/>
    <circle cx="162" cy="248" r="7" fill="#144fd4"/>
    <circle cx="157" cy="243" r="3.2" fill="#fff"/>
    <path d="M133 235c9-7 19-10 30-10 13 0 24 4 33 12" stroke="#276ee8" stroke-width="3" stroke-linecap="round" opacity=".35"/>
  </g>

  <g aria-label="highlighted ear">
    <ellipse cx="326" cy="262" rx="45" ry="58" fill="#fff0f6" opacity=".93"/>
    <path d="M323 207c28 0 44 22 44 50 0 24-15 38-28 49-12 9-14 22-5 29" fill="#ffd1df" opacity=".9"/>
    <path d="M323 207c28 0 44 22 44 50 0 24-15 38-28 49-12 9-14 22-5 29" fill="none" stroke="#f04f84" stroke-width="4" stroke-linecap="round" stroke-linejoin="round"/>
    <path d="M314 248c2-15 13-24 27-20 12 3 18 15 14 28-4 16-22 14-24 31" fill="none" stroke="#f04f84" stroke-width="4" stroke-linecap="round"/>
    <path d="M306 286c8 5 17 6 27 1" stroke="#f04f84" stroke-width="4" stroke-linecap="round"/>
  </g>
</svg>
